<svg width="698" height="159" viewBox="0 0 698 159" fill="none" xmlns="http://www.w3.org/2000/svg">
<path d="M162.636 102V55.4545H168.273V76.1818H193.091V55.4545H198.727V102H193.091V81.1818H168.273V102H162.636ZM223.466 102.727C220.314 102.727 217.549 101.977 215.17 100.477C212.807 98.9773 210.958 96.8788 209.625 94.1818C208.307 91.4848 207.648 88.3333 207.648 84.7273C207.648 81.0909 208.307 77.9167 209.625 75.2045C210.958 72.4924 212.807 70.3864 215.17 68.8864C217.549 67.3864 220.314 66.6364 223.466 66.6364C226.617 66.6364 229.375 67.3864 231.739 68.8864C234.117 70.3864 235.966 72.4924 237.284 75.2045C238.617 77.9167 239.284 81.0909 239.284 84.7273C239.284 88.3333 238.617 91.4848 237.284 94.1818C235.966 96.8788 234.117 98.9773 231.739 100.477C229.375 101.977 226.617 102.727 223.466 102.727ZM223.466 97.9091C225.86 97.9091 227.83 97.2955 229.375 96.0682C230.92 94.8409 232.064 93.2273 232.807 91.2273C233.549 89.2273 233.92 87.0606 233.92 84.7273C233.92 82.3939 233.549 80.2197 232.807 78.2045C232.064 76.1894 230.92 74.5606 229.375 73.3182C227.83 72.0758 225.86 71.4545 223.466 71.4545C221.072 71.4545 219.102 72.0758 217.557 73.3182C216.011 74.5606 214.867 76.1894 214.125 78.2045C213.383 80.2197 213.011 82.3939 213.011 84.7273C213.011 87.0606 213.383 89.2273 214.125 91.2273C214.867 93.2273 216.011 94.8409 217.557 96.0682C219.102 97.2955 221.072 97.9091 223.466 97.9091ZM247.472 102V67.0909H252.653V72.5455H253.108C253.835 70.6818 255.009 69.2348 256.631 68.2045C258.252 67.1591 260.199 66.6364 262.472 66.6364C264.775 66.6364 266.691 67.1591 268.222 68.2045C269.767 69.2348 270.972 70.6818 271.835 72.5455H272.199C273.093 70.7424 274.434 69.3106 276.222 68.25C278.009 67.1742 280.153 66.6364 282.653 66.6364C285.775 66.6364 288.328 67.6136 290.312 69.5682C292.297 71.5076 293.29 74.5303 293.29 78.6364V102H287.926V78.6364C287.926 76.0606 287.222 74.2197 285.812 73.1136C284.403 72.0076 282.744 71.4545 280.835 71.4545C278.381 71.4545 276.479 72.197 275.131 73.6818C273.782 75.1515 273.108 77.0152 273.108 79.2727V102H267.653V78.0909C267.653 76.1061 267.009 74.5076 265.722 73.2955C264.434 72.0682 262.775 71.4545 260.744 71.4545C259.35 71.4545 258.047 71.8258 256.835 72.5682C255.638 73.3106 254.669 74.3409 253.926 75.6591C253.199 76.9621 252.835 78.4697 252.835 80.1818V102H247.472ZM317.733 102.727C314.369 102.727 311.468 101.985 309.028 100.5C306.604 99 304.733 96.9091 303.415 94.2273C302.112 91.5303 301.46 88.3939 301.46 84.8182C301.46 81.2424 302.112 78.0909 303.415 75.3636C304.733 72.6212 306.566 70.4848 308.915 68.9545C311.278 67.4091 314.036 66.6364 317.188 66.6364C319.006 66.6364 320.801 66.9394 322.574 67.5455C324.347 68.1515 325.96 69.1364 327.415 70.5C328.869 71.8485 330.028 73.6364 330.892 75.8636C331.756 78.0909 332.188 80.8333 332.188 84.0909V86.3636H305.278V81.7273H326.733C326.733 79.7576 326.339 78 325.551 76.4545C324.778 74.9091 323.672 73.6894 322.233 72.7955C320.809 71.9015 319.127 71.4545 317.188 71.4545C315.051 71.4545 313.203 71.9848 311.642 73.0455C310.097 74.0909 308.907 75.4545 308.074 77.1364C307.241 78.8182 306.824 80.6212 306.824 82.5455V85.6364C306.824 88.2727 307.278 90.5076 308.188 92.3409C309.112 94.1591 310.392 95.5455 312.028 96.5C313.665 97.4394 315.566 97.9091 317.733 97.9091C319.142 97.9091 320.415 97.7121 321.551 97.3182C322.703 96.9091 323.695 96.303 324.528 95.5C325.362 94.6818 326.006 93.6667 326.46 92.4545L331.642 93.9091C331.097 95.6667 330.18 97.2121 328.892 98.5455C327.604 99.8636 326.013 100.894 324.119 101.636C322.225 102.364 320.097 102.727 317.733 102.727ZM358.347 102V67.0909H363.71V102H358.347ZM361.074 61.2727C360.028 61.2727 359.127 60.9167 358.369 60.2045C357.627 59.4924 357.256 58.6364 357.256 57.6364C357.256 56.6364 357.627 55.7803 358.369 55.0682C359.127 54.3561 360.028 54 361.074 54C362.119 54 363.013 54.3561 363.756 55.0682C364.513 55.7803 364.892 56.6364 364.892 57.6364C364.892 58.6364 364.513 59.4924 363.756 60.2045C363.013 60.9167 362.119 61.2727 361.074 61.2727ZM378.898 81V102H373.534V67.0909H378.716V72.5455H379.17C379.989 70.7727 381.231 69.3485 382.898 68.2727C384.564 67.1818 386.716 66.6364 389.352 66.6364C391.716 66.6364 393.784 67.1212 395.557 68.0909C397.33 69.0455 398.708 70.5 399.693 72.4545C400.678 74.3939 401.17 76.8485 401.17 79.8182V102H395.807V80.1818C395.807 77.4394 395.095 75.303 393.67 73.7727C392.246 72.2273 390.292 71.4545 387.807 71.4545C386.095 71.4545 384.564 71.8258 383.216 72.5682C381.883 73.3106 380.83 74.3939 380.057 75.8182C379.284 77.2424 378.898 78.9697 378.898 81ZM431.608 55.4545L445.426 94.6364H445.972L459.79 55.4545H465.699L448.608 102H442.79L425.699 55.4545H431.608ZM483.608 102.727C480.244 102.727 477.343 101.985 474.903 100.5C472.479 99 470.608 96.9091 469.29 94.2273C467.987 91.5303 467.335 88.3939 467.335 84.8182C467.335 81.2424 467.987 78.0909 469.29 75.3636C470.608 72.6212 472.441 70.4848 474.79 68.9545C477.153 67.4091 479.911 66.6364 483.062 66.6364C484.881 66.6364 486.676 66.9394 488.449 67.5455C490.222 68.1515 491.835 69.1364 493.29 70.5C494.744 71.8485 495.903 73.6364 496.767 75.8636C497.631 78.0909 498.062 80.8333 498.062 84.0909V86.3636H471.153V81.7273H492.608C492.608 79.7576 492.214 78 491.426 76.4545C490.653 74.9091 489.547 73.6894 488.108 72.7955C486.684 71.9015 485.002 71.4545 483.062 71.4545C480.926 71.4545 479.078 71.9848 477.517 73.0455C475.972 74.0909 474.782 75.4545 473.949 77.1364C473.116 78.8182 472.699 80.6212 472.699 82.5455V85.6364C472.699 88.2727 473.153 90.5076 474.062 92.3409C474.987 94.1591 476.267 95.5455 477.903 96.5C479.54 97.4394 481.441 97.9091 483.608 97.9091C485.017 97.9091 486.29 97.7121 487.426 97.3182C488.578 96.9091 489.57 96.303 490.403 95.5C491.237 94.6818 491.881 93.6667 492.335 92.4545L497.517 93.9091C496.972 95.6667 496.055 97.2121 494.767 98.5455C493.479 99.8636 491.888 100.894 489.994 101.636C488.1 102.364 485.972 102.727 483.608 102.727ZM506.222 102V67.0909H511.403V72.3636H511.767C512.403 70.6364 513.555 69.2348 515.222 68.1591C516.888 67.0833 518.767 66.5455 520.858 66.5455C521.252 66.5455 521.744 66.553 522.335 66.5682C522.926 66.5833 523.373 66.6061 523.676 66.6364V72.0909C523.494 72.0455 523.078 71.9773 522.426 71.8864C521.79 71.7803 521.116 71.7273 520.403 71.7273C518.706 71.7273 517.191 72.0833 515.858 72.7955C514.54 73.4924 513.494 74.4621 512.722 75.7045C511.964 76.9318 511.585 78.3333 511.585 79.9091V102H506.222ZM530.034 102V67.0909H535.216V72.5455H535.67C536.398 70.6818 537.572 69.2348 539.193 68.2045C540.814 67.1591 542.761 66.6364 545.034 66.6364C547.337 66.6364 549.254 67.1591 550.784 68.2045C552.33 69.2348 553.534 70.6818 554.398 72.5455H554.761C555.655 70.7424 556.996 69.3106 558.784 68.25C560.572 67.1742 562.716 66.6364 565.216 66.6364C568.337 66.6364 570.89 67.6136 572.875 69.5682C574.86 71.5076 575.852 74.5303 575.852 78.6364V102H570.489V78.6364C570.489 76.0606 569.784 74.2197 568.375 73.1136C566.966 72.0076 565.307 71.4545 563.398 71.4545C560.943 71.4545 559.042 72.197 557.693 73.6818C556.345 75.1515 555.67 77.0152 555.67 79.2727V102H550.216V78.0909C550.216 76.1061 549.572 74.5076 548.284 73.2955C546.996 72.0682 545.337 71.4545 543.307 71.4545C541.913 71.4545 540.61 71.8258 539.398 72.5682C538.201 73.3106 537.231 74.3409 536.489 75.6591C535.761 76.9621 535.398 78.4697 535.398 80.1818V102H530.034ZM599.841 102.727C596.689 102.727 593.924 101.977 591.545 100.477C589.182 98.9773 587.333 96.8788 586 94.1818C584.682 91.4848 584.023 88.3333 584.023 84.7273C584.023 81.0909 584.682 77.9167 586 75.2045C587.333 72.4924 589.182 70.3864 591.545 68.8864C593.924 67.3864 596.689 66.6364 599.841 66.6364C602.992 66.6364 605.75 67.3864 608.114 68.8864C610.492 70.3864 612.341 72.4924 613.659 75.2045C614.992 77.9167 615.659 81.0909 615.659 84.7273C615.659 88.3333 614.992 91.4848 613.659 94.1818C612.341 96.8788 610.492 98.9773 608.114 100.477C605.75 101.977 602.992 102.727 599.841 102.727ZM599.841 97.9091C602.235 97.9091 604.205 97.2955 605.75 96.0682C607.295 94.8409 608.439 93.2273 609.182 91.2273C609.924 89.2273 610.295 87.0606 610.295 84.7273C610.295 82.3939 609.924 80.2197 609.182 78.2045C608.439 76.1894 607.295 74.5606 605.75 73.3182C604.205 72.0758 602.235 71.4545 599.841 71.4545C597.447 71.4545 595.477 72.0758 593.932 73.3182C592.386 74.5606 591.242 76.1894 590.5 78.2045C589.758 80.2197 589.386 82.3939 589.386 84.7273C589.386 87.0606 589.758 89.2273 590.5 91.2273C591.242 93.2273 592.386 94.8409 593.932 96.0682C595.477 97.2955 597.447 97.9091 599.841 97.9091ZM629.21 81V102H623.847V67.0909H629.028V72.5455H629.483C630.301 70.7727 631.544 69.3485 633.21 68.2727C634.877 67.1818 637.028 66.6364 639.665 66.6364C642.028 66.6364 644.097 67.1212 645.869 68.0909C647.642 69.0455 649.021 70.5 650.006 72.4545C650.991 74.3939 651.483 76.8485 651.483 79.8182V102H646.119V80.1818C646.119 77.4394 645.407 75.303 643.983 73.7727C642.559 72.2273 640.604 71.4545 638.119 71.4545C636.407 71.4545 634.877 71.8258 633.528 72.5682C632.195 73.3106 631.142 74.3939 630.369 75.8182C629.597 77.2424 629.21 78.9697 629.21 81ZM676.466 67.0909V71.6364H658.375V67.0909H676.466ZM663.648 58.7273H669.011V92C669.011 93.5152 669.231 94.6515 669.67 95.4091C670.125 96.1515 670.701 96.6515 671.398 96.9091C672.11 97.1515 672.86 97.2727 673.648 97.2727C674.239 97.2727 674.723 97.2424 675.102 97.1818C675.481 97.1061 675.784 97.0455 676.011 97L677.102 101.818C676.739 101.955 676.231 102.091 675.58 102.227C674.928 102.379 674.102 102.455 673.102 102.455C671.587 102.455 670.102 102.129 668.648 101.477C667.208 100.826 666.011 99.8333 665.057 98.5C664.117 97.1667 663.648 95.4848 663.648 93.4545V58.7273Z" fill="#FBDC8E"/>
<path d="M95.7906 12.8599H88.0774C85.2966 12.8599 83.0428 15.114 83.0428 17.8945V45.9312C83.0428 48.7117 85.2966 50.9658 88.0774 50.9658H95.7906C98.5714 50.9658 100.825 48.7117 100.825 45.9312V17.8945C100.825 15.114 98.5714 12.8599 95.7906 12.8599Z" fill="#006251"/>
<path d="M66.949 155.886V129.325H99.6446L71.2859 157.685C70.9305 158.041 70.4776 158.282 69.9846 158.38C69.4915 158.478 68.9805 158.428 68.5162 158.235C68.0518 158.043 67.655 157.716 67.3761 157.298C67.0971 156.881 66.9485 156.389 66.949 155.886Z" fill="#006251"/>
<path d="M101.396 127.675H66.949V130.859H98.0473L101.396 127.675Z" fill="#006251"/>
<path d="M108.478 49.034L61.4256 1.97704C60.1531 0.710826 58.4309 0 56.6358 0C54.8406 0 53.1185 0.710826 51.846 1.97704L4.7942 49.034C1.92296 52.2273 0.23114 56.3071 0 60.5953V68.8841C25.7061 88.0094 56.9047 98.3145 88.9448 98.2631C97.0932 98.2645 105.228 97.6022 113.269 96.2828V60.5953C113.036 56.3083 111.346 52.2295 108.478 49.034Z" fill="#006251"/>
<path d="M88.9462 105.884C56.9062 105.935 25.7077 95.63 0.00143433 76.5054V121.28C0.00724882 123.075 0.722789 124.794 1.99186 126.063C3.26093 127.333 4.98047 128.048 6.7752 128.054H106.498C108.292 128.048 110.011 127.332 111.281 126.063C112.55 124.794 113.265 123.074 113.271 121.28V103.904C105.23 105.224 97.0946 105.886 88.9462 105.884Z" fill="#006251"/>
</svg>
